<?xml version="1.0" encoding="UTF-8" standalone="no"?>
<!DOCTYPE svg PUBLIC "-//W3C//DTD SVG 1.1//EN" "http://www.w3.org/Graphics/SVG/1.1/DTD/svg11.dtd">
<svg width="100%" height="100%" viewBox="0 0 128 129" version="1.1" xmlns="http://www.w3.org/2000/svg" xmlns:xlink="http://www.w3.org/1999/xlink" xml:space="preserve" xmlns:serif="http://www.serif.com/" style="fill-rule:evenodd;clip-rule:evenodd;stroke-linejoin:round;stroke-miterlimit:2;">
    <g transform="matrix(1,0,0,1,0,-903)">
        <g id="logo-128" transform="matrix(0.800742,0,0,0.800742,-15.6256,144.517)">
            <rect x="19.514" y="947.286" width="159.852" height="159.852" style="fill:none;"/>
            <g transform="matrix(3.02855,0,0,3.02855,-294.272,709.215)">
                <g transform="matrix(0.5,0,0,0.5,-375.011,-285)">
                    <path d="M984.024,797.708C982.182,796.06 981.022,793.664 981.022,791C981.022,786.033 985.054,782 990.022,782C993.117,782 995.849,783.566 997.469,785.948C1000.13,789.518 998.931,791.773 1002.02,795C1003.8,796.855 1006.44,797.961 1010.02,798C1013.61,797.961 1016.25,796.855 1018.02,795C1021.11,791.773 1019.91,789.518 1022.57,785.948C1024.19,783.566 1026.93,782 1030.02,782C1034.99,782 1039.02,786.033 1039.02,791C1039.02,793.664 1037.86,796.06 1036.02,797.708L1036.02,797.711C1029.85,803.17 1026.97,799.244 1022.02,803C1018.68,805.537 1019.49,810.587 1017.24,814.445C1015.95,817.138 1013.2,819 1010.02,819C1006.84,819 1004.09,817.138 1002.8,814.445C1000.56,810.587 1001.36,805.537 998.022,803C993.073,799.244 990.192,803.17 984.022,797.711L984.024,797.708Z"/>
                </g>
                <g transform="matrix(0.5,0,0,0.5,-375.011,-285)">
                    <path d="M1010.05,756.998C1018.64,757.052 1019.63,747.029 1022.42,744.5L1022.42,744.5C1024.26,742.358 1026.98,741 1030.02,741C1033.06,741 1035.78,742.358 1037.62,744.5L1037.62,744.5C1041,748.158 1039.99,752.51 1044.02,757C1049,762.551 1050.69,761.43 1054.48,764.356C1054.97,764.687 1055.42,765.071 1055.83,765.5L1055.83,765.5L1055.83,765.5C1057.19,766.934 1058.02,768.87 1058.02,771C1058.02,775.415 1054.44,779 1050.02,779C1048.28,779 1046.67,778.444 1045.36,777.5L1045.36,777.5L1045.36,777.5C1044.82,777.114 1044.34,776.664 1043.91,776.161C1040.64,772.504 1041.58,768.095 1039.02,765C1035.35,760.556 1028.4,760.209 1024.3,765.745C1022.43,768.269 1022.33,771.909 1019.75,776.135C1019.29,776.998 1018.73,777.792 1018.07,778.5L1018.07,778.5L1018.07,778.5C1016.06,780.653 1013.2,782 1010.02,782C1006.85,782 1003.99,780.653 1001.98,778.5L1001.98,778.5L1001.98,778.5C1001.32,777.792 1000.75,776.998 1000.29,776.135C997.711,771.909 997.616,768.269 995.746,765.745C991.646,760.209 984.696,760.556 981.022,765C978.462,768.095 979.406,772.504 976.132,776.161C975.707,776.664 975.22,777.114 974.684,777.5L974.684,777.5L974.684,777.5C973.371,778.444 971.761,779 970.022,779C965.606,779 962.022,775.415 962.022,771C962.022,768.87 962.855,766.934 964.214,765.5L964.214,765.5L964.215,765.5C964.621,765.071 965.074,764.687 965.567,764.356C969.354,761.43 971.039,762.551 976.022,757C980.051,752.51 979.039,748.158 982.424,744.5L982.424,744.5C984.259,742.358 986.983,741 990.022,741C993.06,741 995.784,742.358 997.619,744.5L997.619,744.5C1000.42,747.029 1001.4,757.052 1009.99,756.998L1010.02,756.998L1010.05,756.998Z"/>
                </g>
            </g>
        </g>
    </g>
</svg>
